# xmcd
#
# Track frame offsets: 
#        150
#        13889
#        31182
#        43558
#        57015
#        65202
#        79504
#        93373
#
# Disc length: 1360 seconds
#
# Revision: 0
# Processed by: cddbd v1.5.2PL0 Copyright (c) Steve Scherf et al.
# Submitted via: ExactAudioCopy v1.3
#
DISCID=5d054e08
DTITLE=The Rudy Boy Experiment - Shade Tree Mechanic
DYEAR=2019
DGENRE=Blues Rock
TTITLE0=Betty Lou
TTITLE1=How Much I Love You
TTITLE2=Helping Me With My Blues
TTITLE3=I Have The Blues In My Heart
TTITLE4=This Is How My Life Goes
TTITLE5=Tribute To Al Hurricane
TTITLE6=Shade Tree Mechanic
TTITLE7=How Much I Love You
EXTD=
EXTT0=
EXTT1=
EXTT2=
EXTT3=
EXTT4=
EXTT5=
EXTT6=
EXTT7=
PLAYORDER=
